<svg xmlns="http://www.w3.org/2000/svg" viewBox="0 0 512 512">
  <defs>
    <linearGradient id="g" x1="0" y1="0" x2="1" y2="1">
      <stop offset="0" stop-color="#7C3AED"/>
      <stop offset="1" stop-color="#EC4899"/>
    </linearGradient>
  </defs>
  <rect width="512" height="512" rx="112" fill="url(#g)"/>
  <path d="M150 150h150a60 60 0 0 1 60 60v40a60 60 0 0 1-60 60h-70l-60 46v-46h-20a40 40 0 0 1-40-40V190a40 40 0 0 1 40-40z" fill="#fff"/>
  <circle cx="200" cy="230" r="12" fill="#7C3AED"/>
  <circle cx="250" cy="230" r="12" fill="#7C3AED"/>
  <circle cx="300" cy="230" r="12" fill="#7C3AED"/>
  <path d="M330 300l70-40v120l-70-40z" fill="#fff"/>
</svg>
